<?xml version="1.0" encoding="UTF-8"?>
<svg width="579px" height="115px" viewBox="0 0 579 115" version="1.1" xmlns="http://www.w3.org/2000/svg" xmlns:xlink="http://www.w3.org/1999/xlink">
    <title>Intersoftware</title>
    <g id="Intersoftware" stroke="none" stroke-width="1" fill="none" fill-rule="evenodd">
        <g id="isw_logo_wit" transform="translate(0.000000, -1.000000)" fill="#FFFFFF" fill-rule="nonzero">
            <polygon id="Path" points="69.25 0.64 0.77 25.21 0.77 104.7 31.97 116.06 31.97 36.57 100.59 12.03"></polygon>
            <polygon id="Path" points="69.63 76.73 42.39 86.29 42.39 101.37 90.23 84.31 90.23 26.78 69.63 34.28"></polygon>
            <path d="M146.11,27 L153.11,27 L153.11,34.39 L146.11,34.39 L146.11,27 Z M146.46,43.71 L152.72,43.71 L152.72,89.04 L146.46,89.04 L146.46,43.71 Z" id="Shape"></path>
            <path d="M161.77,43.73 L168,43.73 L168,51.13 C170.53,46.6 174.62,42.86 181.4,42.86 C190.62,42.86 196.19,49.22 196.19,59.4 L196.19,89.07 L190,89.07 L190,61.14 C190,53.05 186.17,48.52 179.56,48.52 C172.95,48.52 168,53.74 168,61.48 L168,89.06 L161.73,89.06 L161.77,43.73 Z" id="Path"></path>
            <path d="M206,78.54 L206,49.31 L200.52,49.31 L200.52,43.74 L206,43.74 L206,30.51 L212.27,30.51 L212.27,43.74 L224.1,43.74 L224.1,49.31 L212.23,49.31 L212.23,77.5 C212.23,82.28 214.84,84.02 218.76,84.02 C220.593924,83.9824248 222.40085,83.570677 224.07,82.81 L224.07,88.2 C221.961585,89.2399411 219.640923,89.7773214 217.29,89.7700738 C210.83,89.7700738 206,86.63 206,78.54 Z" id="Path"></path>
            <path d="M226.23,66.8 L226.23,66.36 C226.23,52.53 234.33,42.87 244.94,42.87 C256.34,42.87 263.12,52.62 263.12,66.28 C263.12,66.89 263.12,68.11 263.03,68.89 L232.58,68.89 C233.28,78.89 239.45,84.46 246.58,84.46 C251.58,84.46 255.19,82.38 258.32,79.24 L261.89,83.24 C257.8,87.41 253.1,90.02 246.32,90.02 C235.28,90 226.23,81.15 226.23,66.8 Z M256.86,64 C256.42,55.38 252.33,48.34 244.94,48.33 C238.24,48.33 233.19,54.51 232.58,63.99 L256.86,64 Z" id="Shape"></path>
            <path d="M268.86,43.75 L275.13,43.75 L275.13,53.75 C277.82,47.4 283.31,42.75 290.7,43.14 L290.7,49.93 L290.35,49.93 C281.91,49.93 275.13,55.84 275.12,67.5 L275.12,89.08 L268.86,89.08 L268.86,43.75 Z" id="Path"></path>
            <path d="M290.78,83.51 L294.09,78.9 C298.35,82.47 302.79,84.38 307.31,84.38 C312.31,84.38 315.75,81.6 315.75,77.38 L315.75,77.29 C315.75,73.29 312.01,71.2 305.92,68.68 C298.7,65.54 292.92,62.68 292.92,55.62 L292.92,55.45 C292.92,48.05 298.92,43.09 307.02,43.0999849 C312.164676,43.1977205 317.150273,44.9003753 321.28,47.97 L318.28,52.75 C314.8,50.23 310.88,48.49 306.88,48.49 C302.1,48.49 299.05,51.27 299.05,54.84 L299.05,55 C299.05,58.83 302.97,60.75 309.14,63.36 C316.62,66.67 321.84,69.8 321.84,76.67 L321.84,76.85 C321.84,84.94 315.32,89.9 307.14,89.8503745 C301.105337,89.754043 295.303423,87.5056241 290.78,83.51 L290.78,83.51 Z" id="Path"></path>
            <path d="M325.32,66.81 L325.32,66.2 C325.32,52.98 333.85,42.89 345.51,42.89 C357.17,42.89 365.61,52.89 365.61,66.12 L365.61,66.64 C365.61,79.87 357.08,90.05 345.42,90.0400074 C333.76,90.03 325.32,80 325.32,66.81 Z M359.26,66.73 L359.26,66.29 C359.26,56.11 353.17,48.54 345.42,48.54 C337.42,48.54 331.76,56.11 331.76,66.2 L331.76,66.64 C331.76,76.82 337.76,84.39 345.51,84.39 C353.51,84.39 359.25,76.73 359.26,66.73 Z" id="Shape"></path>
            <path d="M373.87,49.33 L368.3,49.33 L368.3,43.85 L373.87,43.85 L373.87,39.67 C373.87,34.97 375.18,31.41 377.35,29.14 C379.724882,26.9245856 382.896335,25.7664099 386.14,25.93 C388.173007,25.9072111 390.197193,26.200718 392.14,26.8 L392.14,32.37 C390.481059,31.8321316 388.753357,31.5357616 387.01,31.49 C382.49,31.49 380.14,34.28 380.14,40.02 L380.14,43.85 L392,43.85 L392,49.33 L380.22,49.33 L380.22,89.09 L373.86,89.09 L373.87,49.33 Z" id="Path"></path>
            <path d="M397.09,78.57 L397.09,49.33 L391.61,49.33 L391.61,43.76 L397.09,43.76 L397.09,30.54 L403.36,30.54 L403.36,43.76 L415.2,43.76 L415.2,49.32 L403.36,49.32 L403.36,77.51 C403.36,82.3 405.97,84.04 409.88,84.04 C411.714554,83.9987206 413.5214,83.5835885 415.19,82.82 L415.19,88.22 C413.07555,89.2518561 410.752784,89.7855107 408.4,89.7800422 C402,89.79 397.09,86.66 397.09,78.57 Z" id="Path"></path>
            <polygon id="Path" points="417.46 43.77 424.07 43.77 434.07 79.88 444.43 43.68 449.74 43.68 460.08 79.88 470.18 43.77 476.53 43.77 463 89.45 457.3 89.45 447 54.12 436.64 89.45 431 89.45"></polygon>
            <path d="M477.31,76 L477.31,75.65 C477.31,66.31 484,61 494,61 C497.955791,60.9885448 501.888235,61.6062592 505.65,62.83 L505.65,60.14 C505.65,52.83 501.39,48.91 494.08,48.91 C490.036212,48.9501457 486.063806,49.980156 482.51,51.91 L480.51,46.78 C484.907328,44.4422401 489.800248,43.1907224 494.78,43.13 C500.26,43.13 504.53,44.7 507.48,47.65 C510.27,50.44 511.83,54.65 511.83,59.92 L511.83,89.07 L505.65,89.07 L505.65,82.5 C502.739549,87.3284885 497.455638,90.2168737 491.82,90.06 C484.27,90.06 477.31,84.93 477.31,76 Z M505.76,73.39 L505.76,67.74 C502.229638,66.4872629 498.505801,65.8677519 494.76,65.91 C487.54,65.91 483.53,69.65 483.53,75.39 L483.53,75.65 C483.53,81.3 487.79,84.87 493.19,84.87 C500.19,84.93 505.76,80 505.76,73.36 L505.76,73.39 Z" id="Shape"></path>
            <path d="M519.68,43.78 L526,43.78 L526,53.78 C528.7,47.43 534.18,42.78 541.58,43.16 L541.58,50 L541.23,50 C532.79,50 526,55.91 526,67.57 L526,89.15 L519.73,89.15 L519.68,43.78 Z" id="Path"></path>
            <path d="M541.6,66.84 L541.6,66.4 C541.6,52.57 549.7,42.91 560.31,42.9199922 C571.71,42.9199922 578.49,52.66 578.49,66.32 C578.49,66.93 578.49,68.15 578.4,68.93 L548,68.93 C548.7,78.93 554.87,84.5 562,84.5 C567,84.5 570.61,82.4199922 573.75,79.29 L577.31,83.29 C573.22,87.46 568.52,90.07 561.74,90.07 C550.65,90.07 541.6,81.2 541.6,66.84 Z M572.23,64.06 C571.79,55.45 567.71,48.4 560.31,48.4 C553.61,48.4 548.56,54.57 547.95,64.06 L572.23,64.06 Z" id="Shape"></path>
        </g>
    </g>
</svg>