<?xml version="1.0" encoding="UTF-8"?>
<svg width="234px" height="235px" viewBox="0 0 234 235" version="1.1" xmlns="http://www.w3.org/2000/svg" xmlns:xlink="http://www.w3.org/1999/xlink">
    <title>whatsapp</title>
    <g id="Page-1" stroke="none" stroke-width="1" fill="none" fill-rule="evenodd">
        <g id="Desktop-HD" transform="translate(-1019.000000, -4206.000000)">
            <g id="whatsapp" transform="translate(1019.000000, 4206.000000)">
                <path d="M3,232 L19.1080451,173.200037 C9.17056516,155.993499 3.94471831,136.467248 3.95069754,116.468684 C3.98059369,53.9021748 54.8997147,3 117.478334,3 C147.846842,3.01195729 176.343851,14.8317364 197.77939,36.2771323 C219.20895,57.7285069 231.011949,86.2346814 231,116.558364 C230.976074,179.124873 180.044995,230.033026 117.478334,230.033026 C117.472355,230.033026 117.478334,230.033026 117.478334,230.033026 L117.4305,230.033026 C98.4344869,230.027047 79.7613522,225.262068 63.180948,216.21638 L3,232 Z" id="Path" fill="#FFFFFF" fill-rule="nonzero"></path>
                <path d="M2.98730059,235 C2.19796337,235 1.43254547,234.689082 0.864461873,234.11508 C0.116983453,233.355723 -0.176028087,232.249574 0.105023799,231.227133 L15.8857882,173.611684 C6.10279064,156.236165 0.942199629,136.504847 0.954159284,116.474569 C0.978078593,52.246139 53.2477495,0 117.477075,0 C148.631976,0.0119583747 177.903231,12.1437295 199.903016,34.1590973 C221.9028,56.1804442 234.011951,85.4425871 234,116.558278 C233.976072,180.780729 181.700421,233.032847 117.477075,233.032847 C98.4074058,233.026868 79.5410504,228.321248 62.7975338,219.418238 L3.74673866,234.898354 C3.49558591,234.970104 3.24443316,235 2.98730059,235 Z" id="Path" fill="#FFFFFF" fill-rule="nonzero"></path>
                <path d="M184.346428,49.7005988 C166.501552,31.8443114 142.782238,22.005988 117.535931,22 C65.414521,22 23.0239582,64.3712575 23,116.45509 C22.9940172,134.305389 27.9881872,151.682635 37.4495644,166.730539 L39.7011326,170.305389 L30.1499322,205.161677 L65.9175309,195.784431 L69.3727301,197.832335 C83.876183,206.443114 100.51144,210.994012 117.47006,211 L117.50599,211 C169.59147,211 211.982033,168.622754 212,116.532934 C212.005985,91.2934132 202.191304,67.5568862 184.346428,49.7005988 Z" id="Path" fill="#40C351" fill-rule="nonzero"></path>
                <path d="M89.2425455,68.9724126 C87.1252493,64.2454457 84.8946329,64.1497097 82.8727641,64.0659406 C81.2206765,63.9941386 79.3359846,64 77.4512927,64 C75.5666008,64 72.5009944,64.7121589 69.9065609,67.5543225 C67.3121274,70.3964862 60,77.2595634 60,91.2250579 C60,105.190552 70.1391653,118.689334 71.5526842,120.580121 C72.9662031,122.470907 91.1272374,152.04736 119.886682,163.427981 C143.785291,172.881915 148.65209,171.003095 153.840957,170.530398 C159.029824,170.057702 170.582508,163.667321 172.938373,157.037601 C175.294238,150.40788 175.294238,144.729536 174.59046,143.544803 C173.880719,142.360069 171.996027,141.654016 169.168989,140.229942 C166.341951,138.805869 152.427438,131.942792 149.833004,130.997398 C147.238571,130.052005 145.353879,129.579308 143.463223,132.421472 C141.578531,135.257652 136.15706,141.654016 134.504972,143.544803 C132.852885,145.441573 131.200797,145.680913 128.373759,144.256839 C125.546722,142.832766 116.433401,139.841015 105.62028,130.171675 C97.2107366,122.650412 91.5328041,113.358033 89.8807165,110.51587 C88.228629,107.679689 89.7017901,106.141929 91.1212732,104.723839 C92.391651,103.449353 93.9483111,101.408979 95.3677942,99.7515488 C96.7813132,98.0941186 97.2524861,96.9093852 98.1948321,95.0185984 C99.137178,93.1218282 98.6660051,91.464398 97.9562635,90.0463079 C97.2584503,88.6222344 91.7594442,74.5849378 89.2425455,68.9724126 Z" id="Path" fill="#FFFFFF"></path>
            </g>
        </g>
    </g>
</svg>